# xmcd
# 
# Track frame offsets:
#     150
#     17637
#     36109
#     59352
#     75048
#     99143
#     124161
#     141225
#     161364
#     184217
#     207909
#     238704
# 
# Disc length: 3429
# 
# Revision: 1
# Processed by: cddbd v1.5.2PL0 Copyright (c) Steve Scherf et al.
# Submitted via: fre:ac v1.0.17
# 
DISCID=910d630c
DTITLE=Various Artist - Buena Vista Festival Vol. 1
DYEAR=0
DGENRE=Salsa
TTITLE0=Soneros de Verdad - Golondrina Guajira
TTITLE1=Ruben Gonzales jr. - Marieta
TTITLE2=Gran Afro Cuban Orchesta - A Bailar Tomason
TTITLE3=Sergio Rivero - Merida La Blanca
TTITLE4=Soneros De Verdad - Changui a Reve
TTITLE5=Ruben Gonzales jr. - Coral
TTITLE6=Pio Leiva - Mi Tres Mujeres
TTITLE7=Soneros De Verdad - Sonero De Verdad
TTITLE8=Tiburon Morales - Tarde De Mayo
TTITLE9=Gran Afro Cuban Orchesta - Dame Un Chance
TTITLE10=Soneros De Verdad - Linda Alborada
TTITLE11=Ruben Gonzales jr. - Pianisimo
EXTD=
EXTT0=
EXTT1=
EXTT2=
EXTT3=
EXTT4=
EXTT5=
EXTT6=
EXTT7=
EXTT8=
EXTT9=
EXTT10=
EXTT11=
PLAYORDER=
